<svg width="495" height="379" viewBox="0 0 495 379" fill="none" xmlns="http://www.w3.org/2000/svg">
<g filter="url(#filter0_iiii_501_188)">
<path d="M260.893 363.472C295.339 355.469 284.997 306.578 315.266 291.402C354.868 271.545 417.389 294.88 450.417 268.447C483.939 241.618 487.976 196.892 481.231 158.573C473.936 117.129 452.581 74.48 411.607 47.9617C371.115 21.7551 315.468 15.0929 264.459 18.2775C219.26 21.0994 186.199 49.0864 145.591 64.5697C106.333 79.5383 53.8386 78.8192 29.7218 107.78C5.56359 136.791 9.35609 177.578 23.2953 211.43C35.6238 241.37 72.4925 258.705 100.928 280.705C122.655 297.515 144.889 311.998 170.216 325.102C199.567 340.288 228.034 371.106 260.893 363.472Z" fill="#2AB1AD"/>
</g>
<defs>
<filter id="filter0_iiii_501_188" x="0" y="0" width="494.355" height="394.829" filterUnits="userSpaceOnUse" color-interpolation-filters="sRGB">
<feFlood flood-opacity="0" result="BackgroundImageFix"/>
<feBlend mode="normal" in="SourceGraphic" in2="BackgroundImageFix" result="shape"/>
<feColorMatrix in="SourceAlpha" type="matrix" values="0 0 0 0 0 0 0 0 0 0 0 0 0 0 0 0 0 0 127 0" result="hardAlpha"/>
<feOffset dy="16"/>
<feGaussianBlur stdDeviation="16"/>
<feComposite in2="hardAlpha" operator="arithmetic" k2="-1" k3="1"/>
<feColorMatrix type="matrix" values="0 0 0 0 0 0 0 0 0 0 0 0 0 0 0 0 0 0 0.16 0"/>
<feBlend mode="normal" in2="shape" result="effect1_innerShadow_501_188"/>
<feColorMatrix in="SourceAlpha" type="matrix" values="0 0 0 0 0 0 0 0 0 0 0 0 0 0 0 0 0 0 127 0" result="hardAlpha"/>
<feOffset dy="8"/>
<feGaussianBlur stdDeviation="8"/>
<feComposite in2="hardAlpha" operator="arithmetic" k2="-1" k3="1"/>
<feColorMatrix type="matrix" values="0 0 0 0 0 0 0 0 0 0 0 0 0 0 0 0 0 0 0.12 0"/>
<feBlend mode="normal" in2="effect1_innerShadow_501_188" result="effect2_innerShadow_501_188"/>
<feColorMatrix in="SourceAlpha" type="matrix" values="0 0 0 0 0 0 0 0 0 0 0 0 0 0 0 0 0 0 127 0" result="hardAlpha"/>
<feOffset dy="4"/>
<feGaussianBlur stdDeviation="4"/>
<feComposite in2="hardAlpha" operator="arithmetic" k2="-1" k3="1"/>
<feColorMatrix type="matrix" values="0 0 0 0 0 0 0 0 0 0 0 0 0 0 0 0 0 0 0.12 0"/>
<feBlend mode="normal" in2="effect2_innerShadow_501_188" result="effect3_innerShadow_501_188"/>
<feColorMatrix in="SourceAlpha" type="matrix" values="0 0 0 0 0 0 0 0 0 0 0 0 0 0 0 0 0 0 127 0" result="hardAlpha"/>
<feOffset dy="2"/>
<feGaussianBlur stdDeviation="2"/>
<feComposite in2="hardAlpha" operator="arithmetic" k2="-1" k3="1"/>
<feColorMatrix type="matrix" values="0 0 0 0 0 0 0 0 0 0 0 0 0 0 0 0 0 0 0.12 0"/>
<feBlend mode="normal" in2="effect3_innerShadow_501_188" result="effect4_innerShadow_501_188"/>
</filter>
</defs>
</svg>
